<svg xmlns="http://www.w3.org/2000/svg" viewBox="0 0 512 512">
  <rect width="512" height="512" rx="112" fill="#48a076"/>
  <circle cx="378" cy="126" r="48" fill="#fff4e3"/>
  <path d="M70 350c58-76 108-114 151-114 32 0 63 23 94 68 25-26 52-39 82-39 47 0 92 42 135 126H70z" fill="#f7dfbf"/>
  <path d="M96 168h92l24-38h92l24 38h88a40 40 0 0 1 40 40v172a40 40 0 0 1-40 40H96a40 40 0 0 1-40-40V208a40 40 0 0 1 40-40z" fill="#ffffff" opacity=".22"/>
  <circle cx="256" cy="292" r="72" fill="none" stroke="#ffffff" stroke-width="28"/>
  <text x="256" y="466" text-anchor="middle" font-family="Arial,sans-serif" font-size="48" font-weight="900" fill="#ffffff">JJ</text>
</svg>
